<svg width="624" height="512" viewBox="0 0 624 512" fill="none" xmlns="http://www.w3.org/2000/svg">
<path d="M623 357V62L564 1H306.5V8H31V264H1V432.5H182V511H328V432.5H573V357H623Z" fill="#191B22"/>
<path d="M623 357V62L564 1H306.5V8H31V264H1V432.5H182V511H328V432.5H573V357H623Z" stroke="#535766"/>
<rect x="9" y="397" width="56" height="28" fill="#191B22" stroke="#535766" stroke-width="2"/>
<rect x="65" y="397" width="56" height="28" fill="#191B22" stroke="#535766" stroke-width="2"/>
<rect x="121" y="397" width="56" height="28" fill="#191B22" stroke="#535766" stroke-width="2"/>
<rect x="111" y="332" width="34" height="42" fill="#191B22" stroke="#535766" stroke-width="2"/>
<rect x="175" y="288" width="36" height="86" fill="#191B22" stroke="#535766" stroke-width="2"/>
<rect x="271" y="288" width="36" height="86" fill="#191B22" stroke="#535766" stroke-width="2"/>
<rect x="211" y="288" width="36" height="86" fill="#191B22" stroke="#535766" stroke-width="2"/>
<rect x="307" y="288" width="36" height="86" fill="#191B22" stroke="#535766" stroke-width="2"/>
<path d="M39 16H98V216H68.5V242H39L39 16Z" fill="#191B22" stroke="#535766" stroke-width="2"/>
<path d="M237 84H297V139.446H267V184H237L237 84Z" fill="#191B22" stroke="#535766" stroke-width="2"/>
<path d="M327 184H267V139.446H297V84H327L327 184Z" fill="#191B22" stroke="#535766" stroke-width="2"/>
<path d="M573 292L615 292L615 235.28L594.488 235.28L594.488 189L573 189L573 292Z" fill="#191B22" stroke="#535766" stroke-width="2"/>
<rect x="98" y="66" width="37" height="80" fill="#191B22" stroke="#535766" stroke-width="2"/>
<rect x="168" y="84" width="69" height="100" fill="#191B22" stroke="#535766" stroke-width="2"/>
<rect x="343" y="84" width="60" height="100" fill="#191B22" stroke="#535766" stroke-width="2"/>
<rect x="419" y="84" width="70" height="100" fill="#191B22" stroke="#535766" stroke-width="2"/>
<path d="M573 305H615V349H573V305Z" fill="#191B22" stroke="#535766" stroke-width="2"/>
<rect x="530" y="305" width="35" height="65" fill="#191B22" stroke="#535766" stroke-width="2"/>
<rect x="530" y="396" width="35" height="29" fill="#191B22" stroke="#535766" stroke-width="2"/>
<rect x="530" y="370" width="35" height="26" fill="#191B22" stroke="#535766" stroke-width="2"/>
<rect x="98" y="16" width="70" height="50" fill="#191B22" stroke="#535766" stroke-width="2"/>
<rect x="190" y="433" width="130" height="70" fill="#191B22" stroke="#535766" stroke-width="2"/>
<rect x="496" y="38" width="29" height="28" fill="#191B22" stroke="#535766" stroke-width="2"/>
<rect x="466" y="38" width="30" height="28" fill="#191B22" stroke="#535766" stroke-width="2"/>
<rect x="438" y="38" width="28" height="28" fill="#191B22" stroke="#535766" stroke-width="2"/>
<rect x="350" y="38" width="88" height="28" fill="#191B22" stroke="#535766" stroke-width="2"/>
<rect x="184" y="16" width="166" height="28" fill="#191B22" stroke="#535766" stroke-width="2"/>
<rect x="98" y="146" width="37" height="70" fill="#191B22" stroke="#535766" stroke-width="2"/>
<rect x="98" y="216" width="37" height="54" fill="#191B22" stroke="#535766" stroke-width="2"/>
<path d="M405.5 12.5H519.5V16H405.5V12.5ZM519.5 11.5H405.5V7.5H519.5V11.5ZM405.5 17H519.5V20.5H405.5V17Z" stroke="#3D414E"/>
<rect x="573" y="148" width="21" height="41" fill="#191B22" stroke="#535766" stroke-width="2"/>
<path d="M491 349.44L497.809 335H520V425H472V349.44L491 349.44Z" fill="#191B22" stroke="#535766" stroke-width="2"/>
<rect x="416" y="397" width="56" height="28" fill="#191B22" stroke="#535766" stroke-width="2"/>
<rect x="328" y="397" width="88" height="28" fill="#191B22" stroke="#535766" stroke-width="2"/>
<rect x="9" y="332" width="34" height="42" fill="#191B22" stroke="#535766" stroke-width="2"/>
<rect x="43" y="332" width="34" height="42" fill="#191B22" stroke="#535766" stroke-width="2"/>
<rect x="77" y="332" width="34" height="42" fill="#191B22" stroke="#535766" stroke-width="2"/>
<rect x="194" y="206" width="26" height="44" fill="#191B22" stroke="#535766" stroke-width="2"/>
<rect x="168" y="206" width="26" height="44" fill="#191B22" stroke="#535766" stroke-width="2"/>
<rect x="236" y="206" width="26" height="44" fill="#191B22" stroke="#535766" stroke-width="2"/>
<rect x="530" y="189" width="35" height="103" fill="#191B22" stroke="#535766" stroke-width="2"/>
<path d="M282 206H403V220.667H370.065V250H282V206Z" fill="#191B22" stroke="#535766" stroke-width="2"/>
<rect x="382" y="232" width="21" height="18" fill="#191B22" stroke="#535766" stroke-width="2"/>
<rect x="449" y="230" width="26" height="20" fill="#191B22" stroke="#535766" stroke-width="2"/>
<rect x="449" y="206" width="26" height="20" fill="#191B22" stroke="#535766" stroke-width="2"/>
<rect x="419" y="206" width="22" height="44" fill="#191B22" stroke="#535766" stroke-width="2"/>
<rect x="367" y="289" width="84" height="86" fill="#191B22" stroke="#535766" stroke-width="2"/>
</svg>
